# xmcd CD database file
#
# Track frame offsets:
#	150
#	23820
#	46211
#	75235
#	103073
#	126911
#	159657
#	192343
#	221346
#	244682
#	274134
#
# Disc length: 4020 seconds
#
# Revision: 0
# Processed by: cddbd v1.5PL3 Copyright (c) Steve Scherf et al.
# Submitted via: CDex 1.51
#
DISCID=8e0fb20b
DTITLE=1up - hubble bubble
DYEAR=1998
DGENRE=Jazz
TTITLE0=Scratch It
TTITLE1=Damage Limitation
TTITLE2=Hubble Bubble
TTITLE3=Round Peg
TTITLE4=Rivals Eye
TTITLE5=How Could They?
TTITLE6=Komic Kut
TTITLE7=Sensitive Soul
TTITLE8=Bite Size
TTITLE9=Branch Out
TTITLE10=Less is More
EXTD=YEAR: 1998
EXTT0=
EXTT1=
EXTT2=
EXTT3=
EXTT4=
EXTT5=
EXTT6=
EXTT7=
EXTT8=
EXTT9=
EXTT10=
PLAYORDER=
